# xmcd
#
# Track frame offsets: 
#        150
#        36400
#        43296
#        68254
#        85785
#        120510
#        133004
#        152722
#        160878
#        171313
#        182074
#        191733
#        203928
#        212481
#        231190
#        252163
#        274218
#        291918
#        311636
#
# Disc length: 4491 seconds
#
# Revision: 1
# Processed by: cddbd v1.5.2PL0 Copyright (c) Steve Scherf et al.
# Submitted via: ExactAudioCopy v1.0b3
#
DISCID=18118913
DTITLE=Alejandra Guzman and Gloria Trevi - Versus World Tour
DYEAR=2017
DGENRE=Latin
TTITLE0=Alejandra Guzman - Medley (Luz De Luna, Verano Peligroso, La P
TTITLE0=laga)
TTITLE1=Gloria Trevi - Intro Gloria
TTITLE2=Gloria Trevi - Pelo Suelto
TTITLE3=Gloria Trevi - Tu Angel De La Guarda
TTITLE4=Gloria Trevi - Medley (Agarrate, Zapatos Viejos, A La Madre, C
TTITLE4=hica Embarazada, El Ultimo Beso)
TTITLE5=Gloria Trevi - Que Voy A Hacer Sin El
TTITLE6=Gloria Trevi - Dr. Psiquiatra
TTITLE7=Alejandra Guzman - Mi Peor Error
TTITLE8=Gloria Trevi - El Recuento De Los Daños
TTITLE9=Alejandra Guzman - Ten Cuidado Con El Corazon
TTITLE10=Gloria Trevi - No Querias Lastimarme
TTITLE11=Alejandra Guzman - Llama Por Favor
TTITLE12=Gloria Trevi - Con Los Ojos Cerrados
TTITLE13=Alejandra Guzman - Yo Te Esperaba
TTITLE14=Gloria Trevi - Mañana
TTITLE15=Cuando Un Hombre Te Enamora
TTITLE16=Alejandra Guzman - Todos Me Miran
TTITLE17=Gloria Trevi - Eternamente Bella
TTITLE18=Satisfecha
EXTD=
EXTT0=
EXTT1=
EXTT2=
EXTT3=
EXTT4=
EXTT5=
EXTT6=
EXTT7=
EXTT8=
EXTT9=
EXTT10=
EXTT11=
EXTT12=
EXTT13=
EXTT14=
EXTT15=
EXTT16=
EXTT17=
EXTT18=
PLAYORDER=
